<?xml version="1.0" encoding="utf-8"?>
<!-- Generator: Adobe Illustrator 21.0.2, SVG Export Plug-In . SVG Version: 6.00 Build 0)  -->
<svg version="1.1" id="Calque_1" xmlns="http://www.w3.org/2000/svg" xmlns:xlink="http://www.w3.org/1999/xlink" x="0px" y="0px"
	 viewBox="0 0 153 186" style="enable-background:new 0 0 153 186;" xml:space="preserve">
<style type="text/css">
	.st0{fill:#F4A11E;}
	.st1{fill:none;stroke:#3A3431;stroke-width:3;stroke-miterlimit:10;}
	.st2{fill:none;stroke:#3A3431;stroke-width:3;stroke-linecap:round;stroke-miterlimit:10;}
</style>
<rect x="38.6" y="116.3" class="st0" width="22.8" height="6.8"/>
<polyline class="st1" points="88.5,141.9 27.6,141.9 27.6,30.1 109,30.1 109,78.8 "/>
<rect x="38.6" y="41.1" class="st1" width="37.7" height="37.8"/>
<line class="st1" x1="38.6" y1="95.4" x2="76.4" y2="95.4"/>
<line class="st1" x1="38.6" y1="107.1" x2="76.4" y2="107.1"/>
<path class="st0" d="M46.4,71h22.1V48.9C68.5,48.9,61.7,64.6,46.4,71z"/>
<circle class="st1" cx="109" cy="106.8" r="23.6"/>
<path class="st2" d="M109,91.4c8.5,0,15.4,6.9,15.4,15.4"/>
<path class="st1" d="M104.1,135.1v19c0,2.7,2.2,4.8,4.8,4.8l0,0c2.7,0,4.8-2.2,4.8-4.8v-19"/>
</svg>
